<svg width="15" height="15" viewBox="0 0 15 15" fill="none" xmlns="http://www.w3.org/2000/svg">
<path opacity="0.1" fill-rule="evenodd" clip-rule="evenodd" d="M0 7.5C0 3.35786 3.35786 0 7.5 0C11.6421 0 15 3.35786 15 7.5C15 11.6421 11.6421 15 7.5 15C3.35786 15 0 11.6421 0 7.5Z" fill="white"/>
<path fill-rule="evenodd" clip-rule="evenodd" d="M7.27538 6.09611L7.29111 6.35563L7.02881 6.32385C6.07402 6.20203 5.23989 5.78893 4.53167 5.09512L4.18543 4.75086L4.09624 5.00508C3.90738 5.57178 4.02804 6.17026 4.4215 6.57277C4.63134 6.79522 4.58413 6.82699 4.22215 6.69459C4.09624 6.65222 3.98607 6.62044 3.97558 6.63633C3.93886 6.6734 4.06477 7.15536 4.16444 7.34603C4.30084 7.61084 4.57888 7.87036 4.88316 8.02395L5.14022 8.14576L4.83594 8.15106C4.54216 8.15106 4.53167 8.15636 4.56314 8.26758C4.66807 8.61183 5.08251 8.97728 5.54416 9.13616L5.86942 9.24739L5.58613 9.41687C5.16645 9.66049 4.67331 9.7982 4.18018 9.80879C3.94411 9.81409 3.75 9.83527 3.75 9.85116C3.75 9.90412 4.39002 10.2007 4.7625 10.3172C5.87991 10.6615 7.20718 10.5132 8.20394 9.92531C8.91216 9.5069 9.62038 8.67539 9.95089 7.87036C10.1293 7.44136 10.3076 6.65751 10.3076 6.28148C10.3076 6.03785 10.3234 6.00607 10.6171 5.71478C10.7903 5.5453 10.9529 5.35993 10.9844 5.30697C11.0368 5.20634 11.0316 5.20634 10.764 5.29637C10.3181 5.45526 10.2552 5.43408 10.4755 5.19574C10.6381 5.02626 10.8322 4.71908 10.8322 4.62904C10.8322 4.61316 10.7535 4.63964 10.6644 4.6873C10.5699 4.74027 10.3601 4.81971 10.2027 4.86738L9.91941 4.95741L9.66235 4.78264C9.52071 4.6873 9.32135 4.58138 9.21643 4.5496C8.94888 4.47545 8.53969 4.48605 8.29836 4.57079C7.6426 4.80912 7.22816 5.42348 7.27538 6.09611Z" fill="white"/>
</svg>
