<svg width="15" height="15" viewBox="0 0 15 15" fill="none" xmlns="http://www.w3.org/2000/svg">
<path opacity="0.1" fill-rule="evenodd" clip-rule="evenodd" d="M0 7.5C0 3.35786 3.35786 0 7.5 0C11.6421 0 15 3.35786 15 7.5C15 11.6421 11.6421 15 7.5 15C3.35786 15 0 11.6421 0 7.5Z" fill="white"/>
<path fill-rule="evenodd" clip-rule="evenodd" d="M10.6255 4.9217C10.9697 5.01615 11.2408 5.29447 11.3328 5.64791C11.5 6.28848 11.5 7.62503 11.5 7.62503C11.5 7.62503 11.5 8.96153 11.3328 9.60215C11.2408 9.95559 10.9697 10.2339 10.6255 10.3284C10.0017 10.5 7.5 10.5 7.5 10.5C7.5 10.5 4.99832 10.5 4.37445 10.3284C4.03023 10.2339 3.75914 9.95559 3.66714 9.60215C3.5 8.96153 3.5 7.62503 3.5 7.62503C3.5 7.62503 3.5 6.28848 3.66714 5.64791C3.75914 5.29447 4.03023 5.01615 4.37445 4.9217C4.99832 4.75003 7.5 4.75003 7.5 4.75003C7.5 4.75003 10.0017 4.75003 10.6255 4.9217ZM6.75001 6.5V9L8.75001 7.75005L6.75001 6.5Z" fill="white"/>
</svg>
