<svg width="15" height="15" viewBox="0 0 15 15" fill="none" xmlns="http://www.w3.org/2000/svg">
<path opacity="0.1" fill-rule="evenodd" clip-rule="evenodd" d="M0 7.5C0 3.35786 3.35786 0 7.5 0C11.6421 0 15 3.35786 15 7.5C15 11.6421 11.6421 15 7.5 15C3.35786 15 0 11.6421 0 7.5Z" fill="white"/>
<path fill-rule="evenodd" clip-rule="evenodd" d="M7.50062 3.49997C6.41427 3.49997 6.27794 3.50472 5.85127 3.52414C5.42543 3.54364 5.13476 3.61105 4.88043 3.70997C4.61734 3.81214 4.39417 3.94881 4.17183 4.17123C3.94933 4.39356 3.81266 4.61673 3.71016 4.87973C3.611 5.13415 3.54349 5.42491 3.52433 5.85058C3.50524 6.27725 3.50024 6.41367 3.50024 7.50001C3.50024 8.58636 3.50508 8.72227 3.52441 9.14895C3.54399 9.57478 3.61141 9.86545 3.71025 10.1198C3.8125 10.3829 3.94917 10.606 4.17158 10.8284C4.39384 11.0509 4.61701 11.1879 4.87993 11.2901C5.13443 11.389 5.42518 11.4564 5.85094 11.4759C6.27761 11.4953 6.41386 11.5001 7.50012 11.5001C8.58655 11.5001 8.72247 11.4953 9.14914 11.4759C9.57498 11.4564 9.86598 11.389 10.1205 11.2901C10.3835 11.1879 10.6063 11.0509 10.8286 10.8284C11.0511 10.606 11.1877 10.3829 11.2902 10.1199C11.3886 9.86545 11.4561 9.5747 11.4761 9.14903C11.4952 8.72236 11.5002 8.58636 11.5002 7.50001C11.5002 6.41367 11.4952 6.27733 11.4761 5.85066C11.4561 5.42482 11.3886 5.13415 11.2902 4.87982C11.1877 4.61673 11.0511 4.39356 10.8286 4.17123C10.6061 3.94872 10.3836 3.81206 10.1202 3.70997C9.86523 3.61105 9.57439 3.54364 9.14855 3.52414C8.72188 3.50472 8.58605 3.49997 7.49937 3.49997H7.50062ZM7.14177 4.2208C7.24827 4.22063 7.3671 4.2208 7.5006 4.2208C8.56861 4.2208 8.6952 4.22463 9.11695 4.2438C9.50696 4.26163 9.71863 4.3268 9.85963 4.38155C10.0463 4.45405 10.1794 4.54072 10.3193 4.68072C10.4593 4.82072 10.546 4.95406 10.6186 5.14073C10.6734 5.28156 10.7386 5.49323 10.7564 5.88323C10.7756 6.3049 10.7797 6.43157 10.7797 7.49908C10.7797 8.5666 10.7756 8.69326 10.7564 9.11493C10.7386 9.50494 10.6734 9.71661 10.6186 9.85744C10.5461 10.0441 10.4593 10.177 10.3193 10.3169C10.1793 10.4569 10.0464 10.5436 9.85963 10.6161C9.71879 10.6711 9.50696 10.7361 9.11695 10.754C8.69528 10.7731 8.56861 10.7773 7.5006 10.7773C6.43251 10.7773 6.30592 10.7731 5.88425 10.754C5.49425 10.736 5.28258 10.6708 5.14149 10.616C4.95483 10.5435 4.82149 10.4569 4.68149 10.3169C4.54149 10.1769 4.45482 10.0439 4.38215 9.85711C4.3274 9.71627 4.26215 9.50461 4.2444 9.1146C4.22523 8.69293 4.2214 8.56626 4.2214 7.49808C4.2214 6.42991 4.22523 6.3039 4.2444 5.88223C4.26224 5.49223 4.3274 5.28056 4.38215 5.13956C4.45465 4.95289 4.54149 4.81956 4.68149 4.67955C4.82149 4.53955 4.95483 4.45288 5.14149 4.38022C5.2825 4.32522 5.49425 4.26022 5.88425 4.2423C6.25326 4.22563 6.39626 4.22063 7.14177 4.2198V4.2208ZM9.63579 4.88497C9.37079 4.88497 9.15579 5.09973 9.15579 5.36481C9.15579 5.62982 9.37079 5.84482 9.63579 5.84482C9.9008 5.84482 10.1158 5.62982 10.1158 5.36481C10.1158 5.09981 9.9008 4.88497 9.63579 4.88497ZM7.50063 5.44581C6.3662 5.44581 5.44644 6.36557 5.44644 7.5C5.44644 8.63443 6.3662 9.55377 7.50063 9.55377C8.63506 9.55377 9.55448 8.63443 9.55448 7.5C9.55448 6.36557 8.63506 5.44581 7.50063 5.44581ZM7.50061 6.16665C8.23695 6.16665 8.83396 6.76358 8.83396 7.5C8.83396 8.23634 8.23695 8.83335 7.50061 8.83335C6.76419 8.83335 6.16726 8.23634 6.16726 7.5C6.16726 6.76358 6.76419 6.16665 7.50061 6.16665Z" fill="white"/>
</svg>
