<svg width="40" height="40" viewBox="0 0 40 40" fill="none" xmlns="http://www.w3.org/2000/svg">
<path opacity="0.1" fill-rule="evenodd" clip-rule="evenodd" d="M0 20C0 8.95431 8.95431 0 20 0C31.0457 0 40 8.95431 40 20C40 31.0457 31.0457 40 20 40C8.95431 40 0 31.0457 0 20Z" fill="white"/>
<path fill-rule="evenodd" clip-rule="evenodd" d="M30.6667 19.9851C30.6667 20.7065 30.5932 21.4269 30.449 22.129C30.3083 22.8146 30.1 23.4876 29.8271 24.1309C29.5604 24.7629 29.2296 25.3719 28.8432 25.9399C28.4624 26.5042 28.0239 27.0337 27.5421 27.5163C27.0592 27.9969 26.5279 28.4343 25.9638 28.8166C25.394 29.2004 24.7841 29.5307 24.1518 29.7986C23.5075 30.0701 22.8329 30.2781 22.148 30.4185C21.4449 30.5631 20.7219 30.637 19.9995 30.637C19.2766 30.637 18.5536 30.5631 17.8515 30.4185C17.1655 30.2781 16.491 30.0701 15.8472 29.7986C15.2149 29.5307 14.6044 29.2004 14.0346 28.8166C13.4705 28.4343 12.9393 27.9969 12.4575 27.5163C11.9752 27.0337 11.5366 26.5042 11.1553 25.9399C10.7709 25.3719 10.4396 24.7629 10.1719 24.1309C9.89895 23.4876 9.69011 22.8145 9.54896 22.129C9.40625 21.4269 9.33331 20.7065 9.33331 19.9851C9.33331 19.2632 9.40621 18.5413 9.549 17.8407C9.69016 17.1552 9.89899 16.4811 10.172 15.8388C10.4397 15.2064 10.7709 14.5968 11.1553 14.0288C11.5366 13.464 11.9752 12.9355 12.4575 12.4523C12.9393 11.9717 13.4706 11.5354 14.0347 11.1537C14.6045 10.7682 15.2149 10.438 15.8473 10.1696C16.491 9.89753 17.1655 9.68899 17.8515 9.54962C18.5536 9.40608 19.2766 9.33325 19.9995 9.33325C20.722 9.33325 21.4449 9.40608 22.1481 9.54962C22.833 9.68904 23.5075 9.89757 24.1518 10.1696C24.7841 10.438 25.3941 10.7682 25.9639 11.1537C26.528 11.5354 27.0593 11.9717 27.5421 12.4523C28.0239 12.9355 28.4625 13.464 28.8432 14.0288C29.2296 14.5968 29.5604 15.2064 29.8271 15.8388C30.1 16.4811 30.3083 17.1552 30.449 17.8407C30.5932 18.5413 30.6667 19.2632 30.6667 19.9851ZM16.1128 11.7575C13.5725 12.9553 11.6766 15.2927 11.0854 18.1096C11.3256 18.1117 15.1216 18.1595 19.4952 16.9991C17.9186 14.202 16.2342 11.9193 16.1128 11.7575ZM20.25 18.3999C15.5596 19.802 11.0589 19.7011 10.8974 19.6949C10.8948 19.7927 10.8901 19.8873 10.8901 19.9851C10.8901 22.3219 11.773 24.4523 13.2241 26.0631C13.221 26.0584 15.7138 21.6422 20.6297 20.0548C20.7484 20.0153 20.8693 19.9799 20.9891 19.9456C20.7605 19.4286 20.5109 18.9106 20.25 18.3999ZM26.0154 13.1582C24.4117 11.746 22.3058 10.8895 19.9995 10.8895C19.2593 10.8895 18.541 10.9789 17.853 11.1443C17.9894 11.3274 19.7005 13.594 21.2584 16.4504C24.6956 15.1637 25.993 13.1914 26.0154 13.1582ZM21.61 21.4529C21.5897 21.4596 21.5694 21.4654 21.5496 21.4726C16.1749 23.3436 14.4198 27.1142 14.4008 27.1554C15.9472 28.3563 17.8869 29.0808 19.9995 29.0808C21.261 29.0808 22.4626 28.8243 23.5559 28.3599C23.421 27.5652 22.8918 24.7795 21.61 21.4529ZM25.0898 27.5288C27.1352 26.1505 28.5879 23.9619 28.9931 21.4268C28.8056 21.3665 26.2571 20.5608 23.3168 21.0316C24.5116 24.3104 24.9971 26.9806 25.0898 27.5288ZM21.9595 17.8059C22.171 18.2396 22.3757 18.6811 22.5647 19.1248C22.632 19.284 22.6976 19.4401 22.7616 19.5961C25.891 19.2028 28.9739 19.8644 29.1057 19.8914C29.0849 17.7351 28.3124 15.7561 27.0343 14.2067C27.0171 14.2311 25.5561 16.3391 21.9595 17.8059Z" fill="white"/>
</svg>
